<mxfile host="app.diagrams.net" modified="2020-09-15T13:06:17.505Z" agent="5.0 (X11; Linux x86_64) AppleWebKit/537.36 (KHTML, like Gecko) Chrome/85.0.4183.102 Safari/537.36" etag="KkMyb2lSQ2wu9bhcbM_u" version="13.7.1" type="github">
  <diagram id="n6MDyEE1Af3SU6Wrzqpd" name="Page-1">
    <mxGraphModel dx="1422" dy="685" grid="1" gridSize="10" guides="1" tooltips="1" connect="1" arrows="1" fold="1" page="1" pageScale="1" pageWidth="827" pageHeight="1169" math="0" shadow="0">
      <root>
        <mxCell id="0" />
        <mxCell id="1" parent="0" />
        <mxCell id="eLo3wD_fXhStlZiCic87-1" value="2" style="ellipse;whiteSpace=wrap;html=1;aspect=fixed;fontSize=24;fontStyle=1;gradientColor=#97d077;fillColor=#d5e8d4;strokeColor=#82b366;" vertex="1" parent="1">
          <mxGeometry x="80" y="280" width="80" height="80" as="geometry" />
        </mxCell>
        <mxCell id="eLo3wD_fXhStlZiCic87-2" value="1" style="ellipse;whiteSpace=wrap;html=1;aspect=fixed;fontSize=24;fontStyle=1;gradientColor=#ea6b66;fillColor=#f8cecc;strokeColor=#b85450;" vertex="1" parent="1">
          <mxGeometry x="200" y="280" width="80" height="80" as="geometry" />
        </mxCell>
        <mxCell id="eLo3wD_fXhStlZiCic87-3" value="3" style="ellipse;whiteSpace=wrap;html=1;aspect=fixed;fontSize=24;fontStyle=1;gradientColor=#7ea6e0;fillColor=#dae8fc;strokeColor=#6c8ebf;" vertex="1" parent="1">
          <mxGeometry x="320" y="280" width="80" height="80" as="geometry" />
        </mxCell>
        <mxCell id="eLo3wD_fXhStlZiCic87-4" value="2" style="ellipse;whiteSpace=wrap;html=1;aspect=fixed;fontSize=24;fontStyle=1;gradientColor=#97d077;fillColor=#d5e8d4;strokeColor=#82b366;" vertex="1" parent="1">
          <mxGeometry x="440" y="280" width="80" height="80" as="geometry" />
        </mxCell>
        <mxCell id="eLo3wD_fXhStlZiCic87-5" value="1" style="ellipse;whiteSpace=wrap;html=1;aspect=fixed;fontSize=24;fontStyle=1;gradientColor=#ea6b66;fillColor=#f8cecc;strokeColor=#b85450;" vertex="1" parent="1">
          <mxGeometry x="560" y="280" width="80" height="80" as="geometry" />
        </mxCell>
        <mxCell id="eLo3wD_fXhStlZiCic87-6" value="T" style="ellipse;whiteSpace=wrap;html=1;aspect=fixed;fontSize=24;fontStyle=1;fillColor=#ffcd28;strokeColor=#d79b00;gradientColor=#ffa500;" vertex="1" parent="1">
          <mxGeometry x="680" y="280" width="80" height="80" as="geometry" />
        </mxCell>
        <mxCell id="eLo3wD_fXhStlZiCic87-7" value="1" style="ellipse;whiteSpace=wrap;html=1;aspect=fixed;fontSize=24;fontStyle=1;gradientColor=#ea6b66;fillColor=#f8cecc;strokeColor=#b85450;" vertex="1" parent="1">
          <mxGeometry x="800" y="280" width="80" height="80" as="geometry" />
        </mxCell>
        <mxCell id="eLo3wD_fXhStlZiCic87-8" value="2" style="ellipse;whiteSpace=wrap;html=1;aspect=fixed;fontSize=24;fontStyle=1;gradientColor=#97d077;fillColor=#d5e8d4;strokeColor=#82b366;" vertex="1" parent="1">
          <mxGeometry x="920" y="280" width="80" height="80" as="geometry" />
        </mxCell>
        <mxCell id="eLo3wD_fXhStlZiCic87-9" value="2" style="ellipse;whiteSpace=wrap;html=1;aspect=fixed;fontSize=24;fontStyle=1;gradientColor=#97d077;fillColor=#d5e8d4;strokeColor=#82b366;" vertex="1" parent="1">
          <mxGeometry x="80" y="440" width="80" height="80" as="geometry" />
        </mxCell>
        <mxCell id="eLo3wD_fXhStlZiCic87-10" value="1" style="ellipse;whiteSpace=wrap;html=1;aspect=fixed;fontSize=24;fontStyle=1;gradientColor=#ea6b66;fillColor=#f8cecc;strokeColor=#b85450;" vertex="1" parent="1">
          <mxGeometry x="200" y="440" width="80" height="80" as="geometry" />
        </mxCell>
        <mxCell id="eLo3wD_fXhStlZiCic87-11" value="3" style="ellipse;whiteSpace=wrap;html=1;aspect=fixed;fontSize=24;fontStyle=1;gradientColor=#7ea6e0;fillColor=#dae8fc;strokeColor=#6c8ebf;" vertex="1" parent="1">
          <mxGeometry x="320" y="440" width="80" height="80" as="geometry" />
        </mxCell>
        <mxCell id="eLo3wD_fXhStlZiCic87-12" value="2" style="ellipse;whiteSpace=wrap;html=1;aspect=fixed;fontSize=24;fontStyle=1;gradientColor=#97d077;fillColor=#d5e8d4;strokeColor=#82b366;" vertex="1" parent="1">
          <mxGeometry x="440" y="440" width="80" height="80" as="geometry" />
        </mxCell>
        <mxCell id="eLo3wD_fXhStlZiCic87-13" value="1" style="ellipse;whiteSpace=wrap;html=1;aspect=fixed;fontSize=24;fontStyle=1;gradientColor=#ea6b66;fillColor=#f8cecc;strokeColor=#b85450;" vertex="1" parent="1">
          <mxGeometry x="560" y="440" width="80" height="80" as="geometry" />
        </mxCell>
        <mxCell id="eLo3wD_fXhStlZiCic87-14" value="3" style="ellipse;whiteSpace=wrap;html=1;aspect=fixed;fontSize=24;fontStyle=1;fillColor=#dae8fc;strokeColor=#6c8ebf;gradientColor=#7ea6e0;" vertex="1" parent="1">
          <mxGeometry x="680" y="440" width="80" height="80" as="geometry" />
        </mxCell>
        <mxCell id="eLo3wD_fXhStlZiCic87-15" value="2" style="ellipse;whiteSpace=wrap;html=1;aspect=fixed;fontSize=24;fontStyle=1;gradientColor=#97d077;fillColor=#d5e8d4;strokeColor=#82b366;" vertex="1" parent="1">
          <mxGeometry x="800" y="440" width="80" height="80" as="geometry" />
        </mxCell>
        <mxCell id="eLo3wD_fXhStlZiCic87-25" value="1" style="ellipse;whiteSpace=wrap;html=1;aspect=fixed;fontSize=24;fontStyle=1;gradientColor=#ea6b66;fillColor=#f8cecc;strokeColor=#b85450;" vertex="1" parent="1">
          <mxGeometry x="80" y="600" width="80" height="80" as="geometry" />
        </mxCell>
        <mxCell id="eLo3wD_fXhStlZiCic87-26" value="T" style="ellipse;whiteSpace=wrap;html=1;aspect=fixed;fontSize=24;fontStyle=1;gradientColor=#ffa500;fillColor=#ffcd28;strokeColor=#d79b00;" vertex="1" parent="1">
          <mxGeometry x="200" y="600" width="80" height="80" as="geometry" />
        </mxCell>
        <mxCell id="eLo3wD_fXhStlZiCic87-27" value="1" style="ellipse;whiteSpace=wrap;html=1;aspect=fixed;fontSize=24;fontStyle=1;gradientColor=#ea6b66;fillColor=#f8cecc;strokeColor=#b85450;" vertex="1" parent="1">
          <mxGeometry x="320" y="600" width="80" height="80" as="geometry" />
        </mxCell>
        <mxCell id="eLo3wD_fXhStlZiCic87-28" value="2" style="ellipse;whiteSpace=wrap;html=1;aspect=fixed;fontSize=24;fontStyle=1;strokeColor=#b85450;fillColor=#FF0000;gradientDirection=east;gradientColor=#808080;" vertex="1" parent="1">
          <mxGeometry x="440" y="600" width="80" height="80" as="geometry" />
        </mxCell>
        <mxCell id="eLo3wD_fXhStlZiCic87-29" value="1" style="ellipse;whiteSpace=wrap;html=1;aspect=fixed;fontSize=24;fontStyle=1;gradientColor=#ea6b66;fillColor=#f8cecc;strokeColor=#b85450;" vertex="1" parent="1">
          <mxGeometry x="560" y="600" width="80" height="80" as="geometry" />
        </mxCell>
        <mxCell id="eLo3wD_fXhStlZiCic87-30" value="T" style="ellipse;whiteSpace=wrap;html=1;aspect=fixed;fontSize=24;fontStyle=1;fillColor=#ffcd28;strokeColor=#d79b00;gradientColor=#ffa500;" vertex="1" parent="1">
          <mxGeometry x="680" y="600" width="80" height="80" as="geometry" />
        </mxCell>
        <mxCell id="eLo3wD_fXhStlZiCic87-31" value="1" style="ellipse;whiteSpace=wrap;html=1;aspect=fixed;fontSize=24;fontStyle=1;gradientColor=#ea6b66;fillColor=#f8cecc;strokeColor=#b85450;" vertex="1" parent="1">
          <mxGeometry x="800" y="600" width="80" height="80" as="geometry" />
        </mxCell>
        <mxCell id="eLo3wD_fXhStlZiCic87-32" value="2" style="ellipse;whiteSpace=wrap;html=1;aspect=fixed;fontSize=24;fontStyle=1;gradientColor=#97d077;fillColor=#d5e8d4;strokeColor=#82b366;" vertex="1" parent="1">
          <mxGeometry x="920" y="600" width="80" height="80" as="geometry" />
        </mxCell>
        <mxCell id="eLo3wD_fXhStlZiCic87-33" value="1" style="ellipse;whiteSpace=wrap;html=1;aspect=fixed;fontSize=24;fontStyle=1;strokeColor=#b85450;fillColor=#FF0000;gradientDirection=east;gradientColor=#808080;" vertex="1" parent="1">
          <mxGeometry x="920" y="440" width="80" height="80" as="geometry" />
        </mxCell>
      </root>
    </mxGraphModel>
  </diagram>
</mxfile>
